<svg width="688" height="688" xmlns="http://www.w3.org/2000/svg" xmlns:xlink="http://www.w3.org/1999/xlink" xml:space="preserve" overflow="hidden"><g transform="translate(-1184 -1233)"><path d="M1321 1583.5C1321 1468.9 1413.68 1376 1528 1376 1642.32 1376 1735 1468.9 1735 1583.5 1735 1698.1 1642.32 1791 1528 1791 1413.68 1791 1321 1698.1 1321 1583.5Z" fill="#444957" fill-rule="evenodd"/><path d="M1528.87 1406.5C1571.7 1406.5 1610.99 1421.11 1641.63 1445.43L1650.29 1453 1661.29 1451.79C1723.7 1446.67 1786.1 1459.01 1848.5 1488.84L1848.5 1746.49C1753.47 1727.5 1704.04 1714.56 1620.21 1726.9L1609.65 1728.65 1597.87 1734.1C1576.66 1742.73 1553.34 1747.5 1528.87 1747.5 1504.39 1747.5 1481.07 1742.73 1459.86 1734.1L1447.94 1728.58 1437.79 1726.9C1353.96 1714.56 1304.53 1727.5 1209.5 1746.49L1209.5 1488.84C1262.75 1463.39 1316 1450.66 1369.25 1450.66 1380.9 1450.66 1392.55 1451.27 1404.2 1452.49L1407.53 1452.93 1416.1 1445.43C1446.74 1421.11 1486.03 1406.5 1528.87 1406.5Z" stroke="#444957" stroke-width="11.4583" stroke-miterlimit="8" fill="#F9E2C4" fill-rule="evenodd"/><path d="M1529.26 1406.5C1565.3 1406.5 1598.77 1417.68 1626.54 1436.81L1632.78 1441.57 1634.03 1440.92C1681.73 1418.16 1748.37 1400.04 1830.5 1441.68 1830.5 1535.36 1828.62 1611.95 1828.62 1705.64 1759.79 1688.49 1711.68 1686.93 1662.51 1705.67L1651.46 1710.29 1639.94 1720.97C1609.86 1746.29 1571.3 1761.5 1529.26 1761.5 1487.22 1761.5 1448.67 1746.29 1418.59 1720.97L1411.57 1714.46 1408.94 1713.17C1354.9 1688.66 1304.47 1688.81 1229.38 1707.52 1229.38 1613.84 1227.5 1537.24 1227.5 1443.56 1309.63 1401.92 1376.27 1420.04 1423.97 1442.81L1424.07 1442.86 1431.99 1436.81C1459.75 1417.68 1493.23 1406.5 1529.26 1406.5Z" stroke="#444957" stroke-width="11.4583" stroke-miterlimit="8" fill="#F9E2C4" fill-rule="evenodd"/><path d="M1409.8 1716.5 1408.5 1735.36 1437.5 1737.5 1409.8 1716.5Z" stroke="#444957" stroke-width="6.875" stroke-miterlimit="8" fill="#444957" fill-rule="evenodd"/><path d="M1.29854 0 0 18.8574 29.0002 21.0003 1.29854 0Z" stroke="#444957" stroke-width="6.875" stroke-miterlimit="8" fill="#444957" fill-rule="evenodd" transform="matrix(-1 0 0 1 1647.5 1716.5)"/><path d="M1392.5 1584.5C1392.5 1509.94 1453.17 1449.5 1528 1449.5 1602.83 1449.5 1663.5 1509.94 1663.5 1584.5 1663.5 1659.06 1602.83 1719.5 1528 1719.5 1453.17 1719.5 1392.5 1659.06 1392.5 1584.5Z" stroke="#444957" stroke-width="41.25" stroke-miterlimit="8" fill="#CD6D69" fill-rule="evenodd"/></g></svg>